<?xml version="1.0" encoding="utf-8"?>
<svg version="1.1" xmlns:xlink="http://www.w3.org/1999/xlink" width="28px" height="29px" xmlns="http://www.w3.org/2000/svg">
  <g transform="matrix(1 0 0 1 -81 -700 )">
    <path d="M 82 711.5  A 10.5 10.5 0 0 1 92.5 701 L 97.5 701  A 10.5 10.5 0 0 1 108 711.5 L 108 717.5  A 10.5 10.5 0 0 1 97.5 728 L 92.5 728  A 10.5 10.5 0 0 1 82 717.5 L 82 711.5  Z " fill-rule="nonzero" fill="#ffffff" stroke="none" fill-opacity="0" />
    <path d="M 81.5 711.5  A 11 11 0 0 1 92.5 700.5 L 97.5 700.5  A 11 11 0 0 1 108.5 711.5 L 108.5 717.5  A 11 11 0 0 1 97.5 728.5 L 92.5 728.5  A 11 11 0 0 1 81.5 717.5 L 81.5 711.5  Z " stroke-width="1" stroke-dasharray="3,1" stroke="#999999" fill="none" stroke-dashoffset="0.5" />
  </g>
</svg>