<?xml version="1.0" encoding="utf-8"?>
<svg version="1.1" xmlns:xlink="http://www.w3.org/1999/xlink" width="23px" height="23px" xmlns="http://www.w3.org/2000/svg">
  <g transform="matrix(1 0 0 1 -114 -661 )">
    <path d="M 115 672.5  A 10.5 10.5 0 0 1 125.5 662 A 10.5 10.5 0 0 1 136 672.5 A 10.5 10.5 0 0 1 125.5 683 A 10.5 10.5 0 0 1 115 672.5 Z " fill-rule="nonzero" fill="#ffffff" stroke="none" fill-opacity="0" />
    <path d="M 114.5 672.5  A 11 11 0 0 1 125.5 661.5 A 11 11 0 0 1 136.5 672.5 A 11 11 0 0 1 125.5 683.5 A 11 11 0 0 1 114.5 672.5 Z " stroke-width="1" stroke-dasharray="3,1" stroke="#999999" fill="none" stroke-dashoffset="0.5" />
  </g>
</svg>