<?xml version="1.0" encoding="utf-8"?>
<svg version="1.1" xmlns:xlink="http://www.w3.org/1999/xlink" width="187px" height="187px" xmlns="http://www.w3.org/2000/svg">
  <g transform="matrix(1 0 0 1 -139 -276 )">
    <path d="M 232.5 276  C 284.86 276  326 317.14  326 369.5  C 326 421.86  284.86 463  232.5 463  C 180.14 463  139 421.86  139 369.5  C 139 317.14  180.14 276  232.5 276  Z " fill-rule="nonzero" fill="#ffffff" stroke="none" />
    <path d="M 232.5 276.5  C 284.58 276.5  325.5 317.42  325.5 369.5  C 325.5 421.58  284.58 462.5  232.5 462.5  C 180.42 462.5  139.5 421.58  139.5 369.5  C 139.5 317.42  180.42 276.5  232.5 276.5  Z " stroke-width="1" stroke="#797979" fill="none" />
  </g>
</svg>